<?xml version="1.0" encoding="UTF-8"?>
<svg id="Layer_2" data-name="Layer 2" xmlns="http://www.w3.org/2000/svg" viewBox="0 0 40.04 38.87">
  <defs>
    <style>
      .cls-1 {
        fill: #00ff9d;
      }
    </style>
  </defs>
  <g id="Layer_1-2" data-name="Layer 1">
    <path class="cls-1" d="M2.19,4.28c1.21,0,2.12-.89,2.12-2.08S3.36.01,2.19.01.03.97.03,2.14s.97,2.13,2.16,2.13Z"/>
    <path class="cls-1" d="M39.17,35c-.31-.31-.63-.44-.99-.46-4.82.07-16.2-.04-33.85-.32.01-7.01.01-11.94,0-14.81,0-.34-.16-.67-.46-.97-.54-.52-1.41-.87-1.71-.83-.36,0-2.15.63-2.15,1.8v3.33C0,27.3-.01,32,.02,36.69c0,.41.49,1.15.94,1.59.4.39.81.59,1.2.59h.03c4.68-.13,20.99-.07,30.74-.03l5.24.02h0c1.37,0,1.87-1.69,1.87-2.12,0-.31-.32-1.2-.87-1.74Z"/>
    <path class="cls-1" d="M2.23,8.59c-1.19,0-2.16.96-2.16,2.13s.97,2.13,2.16,2.13,2.12-.91,2.12-2.08-.95-2.19-2.12-2.19Z"/>
    <path class="cls-1" d="M12.44,30.93h19.89c1.41,0,2.55-1.1,2.55-2.47V2.47c0-1.36-1.14-2.47-2.55-2.47h-10.98c-.68,0-1.32.26-1.8.72l-8.91,8.63c-.48.46-.75,1.09-.75,1.74v17.36c0,1.36,1.14,2.47,2.55,2.47ZM27.81,26.64c-1.19,0-2.16-.96-2.16-2.13s.97-2.13,2.16-2.13,2.12.98,2.12,2.19-.91,2.08-2.12,2.08ZM28.35,3.58c0-.15.12-.27.27-.27h2.61c.15,0,.27.12.27.27v5.57c0,.15-.12.27-.27.27h-2.61c-.15,0-.27-.12-.27-.27V3.58ZM29.93,15.21c0,1.16-.93,2.08-2.12,2.08s-2.16-.96-2.16-2.13.97-2.13,2.16-2.13,2.12.98,2.12,2.19ZM23.8,3.58c0-.15.12-.27.27-.27h2.61c.15,0,.27.12.27.27v5.57c0,.15-.12.27-.27.27h-2.61c-.15,0-.27-.12-.27-.27V3.58ZM19.24,3.58c0-.15.12-.27.27-.27h2.61c.15,0,.27.12.27.27v5.57c0,.15-.12.27-.27.27h-2.61c-.15,0-.27-.12-.27-.27V3.58ZM18.45,12.98c1.17,0,2.12.98,2.12,2.19s-.91,2.08-2.12,2.08-2.16-.96-2.16-2.13.97-2.13,2.16-2.13ZM18.43,22.37c1.17,0,2.12.98,2.12,2.19s-.93,2.08-2.12,2.08-2.16-.96-2.16-2.13.97-2.13,2.16-2.13Z"/>
  </g>
</svg>