<?xml version="1.0" encoding="utf-8"?>
<!-- Generator: Adobe Illustrator 30.4.0, SVG Export Plug-In . SVG Version: 9.03 Build 0)  -->
<svg version="1.0"
	 id="Layer_1" xmlns:sodipodi="http://sodipodi.sourceforge.net/DTD/sodipodi-0.dtd" xmlns:krita="http://krita.org/namespaces/svg/krita"
	 xmlns="http://www.w3.org/2000/svg" xmlns:xlink="http://www.w3.org/1999/xlink" x="0px" y="0px" viewBox="0 0 46.08 46.08"
	 style="enable-background:new 0 0 46.08 46.08;" xml:space="preserve">
<style type="text/css">
	.st0{display:none;fill:none;stroke:#FF6DAF;stroke-width:4.32;stroke-linecap:square;stroke-linejoin:bevel;}
	.st1{display:none;}
	
		.st2{display:inline;fill-rule:evenodd;clip-rule:evenodd;fill:#FF6DAF;stroke:#FF6DAF;stroke-width:0.72;stroke-linecap:square;stroke-linejoin:bevel;}
	.st3{fill:#00FF9D;}
	.st4{fill:#FF6DAF;}
</style>
<path id="shape0" class="st0" d="M15.12,8.64h22.32c0.4,0,0.72,0.32,0.72,0.72v22.32c0,0.4-0.32,0.72-0.72,0.72H15.12
	c-0.4,0-0.72-0.32-0.72-0.72V9.36C14.4,8.96,14.72,8.64,15.12,8.64z"/>
<g class="st1">
	<path id="shape01" class="st2" d="M23.36,15.87c0-0.98-0.76-1.83-1.76-1.83s-1.8,0.79-1.8,1.77c0,0.98,0.81,1.77,1.8,1.77
		S23.36,16.85,23.36,15.87z"/>
	<path id="shape02" class="st2" d="M32.72,15.91c0-0.98-0.76-1.83-1.76-1.83c-0.99,0-1.8,0.79-1.8,1.77c0,0.98,0.81,1.77,1.8,1.77
		C31.96,17.62,32.72,16.89,32.72,15.91z"/>
	<path id="shape03" class="st2" d="M23.34,25.26c0-0.98-0.76-1.83-1.76-1.83s-1.8,0.79-1.8,1.77c0,0.98,0.81,1.77,1.8,1.77
		S23.34,26.23,23.34,25.26z"/>
	<path id="shape04" class="st2" d="M32.72,25.27c0-0.98-0.76-1.83-1.76-1.83c-0.99,0-1.8,0.79-1.8,1.77c0,0.98,0.81,1.77,1.8,1.77
		C31.96,26.98,32.72,26.24,32.72,25.27z"/>
</g>
<path class="st3" d="M5.76,7.9c1.21,0,2.12-0.89,2.12-2.08c0-1.21-0.95-2.19-2.12-2.19c-1.19,0-2.16,0.96-2.16,2.13
	S4.57,7.9,5.76,7.9z"/>
<path class="st3" d="M42.74,38.63c-0.31-0.31-0.63-0.44-0.99-0.46c-4.82,0.07-16.2-0.04-33.85-0.32c0.01-7.01,0.01-11.94,0-14.81
	c0-0.34-0.16-0.67-0.46-0.97c-0.54-0.52-1.41-0.87-1.71-0.83c-0.36,0.01-2.15,0.63-2.15,1.8l-0.01,3.33
	c-0.01,4.55-0.02,9.25,0.01,13.94c0,0.41,0.49,1.15,0.94,1.59c0.4,0.39,0.81,0.59,1.2,0.59c0.01,0,0.02,0,0.03,0
	c4.68-0.13,20.99-0.07,30.74-0.03l5.24,0.02c0,0,0,0,0,0c1.37,0,1.87-1.69,1.87-2.12C43.62,40.06,43.29,39.17,42.74,38.63z"/>
<path class="st3" d="M5.8,12.21c-1.19,0-2.16,0.96-2.16,2.13s0.97,2.13,2.16,2.13c1.19,0,2.12-0.91,2.12-2.08
	C7.91,13.2,6.96,12.21,5.8,12.21z"/>
<path class="st3" d="M16.01,34.55h19.89c1.41,0,2.55-1.1,2.55-2.47v-26c0-1.36-1.14-2.47-2.55-2.47H24.93
	c-0.68,0-1.32,0.26-1.8,0.72l-8.91,8.63c-0.48,0.46-0.75,1.09-0.75,1.74v17.36C13.46,33.45,14.6,34.55,16.01,34.55z M31.38,30.26
	c-1.19,0-2.16-0.96-2.16-2.13S30.19,26,31.38,26c1.17,0,2.12,0.98,2.12,2.19C33.5,29.37,32.59,30.26,31.38,30.26z M31.92,7.2
	c0-0.15,0.12-0.27,0.27-0.27h2.61c0.15,0,0.27,0.12,0.27,0.27v5.57c0,0.15-0.12,0.27-0.27,0.27h-2.61c-0.15,0-0.27-0.12-0.27-0.27
	V7.2z M33.5,18.83c0,1.16-0.93,2.08-2.12,2.08c-1.19,0-2.16-0.96-2.16-2.13s0.97-2.13,2.16-2.13C32.55,16.64,33.5,17.62,33.5,18.83z
	 M27.37,7.2c0-0.15,0.12-0.27,0.27-0.27h2.61c0.15,0,0.27,0.12,0.27,0.27v5.57c0,0.15-0.12,0.27-0.27,0.27h-2.61
	c-0.15,0-0.27-0.12-0.27-0.27V7.2z M22.81,7.2c0-0.15,0.12-0.27,0.27-0.27h2.61c0.15,0,0.27,0.12,0.27,0.27v5.57
	c0,0.15-0.12,0.27-0.27,0.27h-2.61c-0.15,0-0.27-0.12-0.27-0.27V7.2z M22.02,16.6c1.17,0,2.12,0.98,2.12,2.19
	c0,1.18-0.91,2.08-2.12,2.08c-1.19,0-2.16-0.96-2.16-2.13C19.86,17.56,20.83,16.6,22.02,16.6z M22,25.99c1.17,0,2.12,0.98,2.12,2.19
	c0,1.16-0.93,2.08-2.12,2.08c-1.19,0-2.16-0.96-2.16-2.13S20.81,25.99,22,25.99z"/>
<path class="st4" d="M63.23,63.5H52.25c-0.68,0-1.32,0.26-1.8,0.72l-8.91,8.63c-0.48,0.46-0.75,1.09-0.75,1.74v17.36
	c0,1.36,1.14,2.47,2.55,2.47h19.89c1.41,0,2.55-1.1,2.55-2.47v-26C65.77,64.6,64.63,63.5,63.23,63.5z M53.28,72.65
	c0,0.15-0.12,0.27-0.27,0.27H50.4c-0.15,0-0.27-0.12-0.27-0.27v-5.57c0-0.15,0.12-0.27,0.27-0.27h2.61c0.15,0,0.27,0.12,0.27,0.27
	V72.65z M57.84,72.65c0,0.15-0.12,0.27-0.27,0.27h-2.61c-0.15,0-0.27-0.12-0.27-0.27v-5.57c0-0.15,0.12-0.27,0.27-0.27h2.61
	c0.15,0,0.27,0.12,0.27,0.27V72.65z M62.39,72.65c0,0.15-0.12,0.27-0.27,0.27h-2.61c-0.15,0-0.27-0.12-0.27-0.27v-5.57
	c0-0.15,0.12-0.27,0.27-0.27h2.61c0.15,0,0.27,0.12,0.27,0.27V72.65z"/>
</svg>
